<svg width="1440" height="840" viewBox="0 0 1440 840" fill="none" xmlns="http://www.w3.org/2000/svg">
<g clip-path="url(#clip0_1_203)">
<path d="M0 0H1440V840H0V0Z" fill="#171C8F"/>
<g clip-path="url(#clip1_1_203)">
<path d="M1211.96 27.7741C1199.91 38.2538 1190.53 50.783 1183.25 64.8957C1175.55 79.8933 1178.53 99.5952 1190.06 111.426C1202.15 123.815 1216.86 125.678 1234.32 117.667C1251.92 109.609 1265.55 96.428 1279.37 83.4797C1282.45 80.592 1284.88 76.6795 1289.45 75.1891C1289.78 76.4932 1290.15 77.1453 1290.01 77.6577C1289.26 80.4523 1288.38 83.2003 1287.58 85.9483C1282.17 105.091 1280.63 124.327 1285.62 143.89C1293.18 173.326 1325.44 182.641 1347.38 161.542C1358.12 151.249 1362.79 138.114 1364.89 123.862C1365.78 117.76 1365.92 111.519 1366.48 104.486C1370.44 107.793 1370.96 111.426 1372.26 114.593C1377.4 126.843 1383.84 138.161 1393.6 147.429C1400.93 154.369 1409.8 158.049 1419.46 159.353C1427.96 160.517 1435.05 157.909 1439.91 152.739V100.34V49.8514V-27H1286.32C1282.26 -23.7396 1278.2 -20.5724 1274.09 -17.7313C1253.04 -3.1062 1231.42 10.9134 1211.96 27.7741Z" fill="#E06BA9"/>
</g>
<path d="M1417.36 662C1422.17 662.817 1422.52 666.008 1423.42 668.46C1437.63 707.492 1449.2 747.302 1452.61 788.785C1458.28 857.081 1387.54 905.881 1333.62 890.042C1298.4 879.691 1274.45 854.396 1255.93 823.77C1238.23 794.35 1231.2 760.689 1219.71 728.817C1218.66 725.899 1216.56 722.357 1219.48 719.672C1222.43 716.987 1225.76 719.478 1228.4 720.956C1246.11 731.074 1263.77 741.309 1281.32 751.699C1292.19 758.12 1293.82 757.731 1297.47 745.473C1302.87 727.183 1308.07 708.815 1313.27 690.486C1315.72 681.886 1318.83 680.096 1326.2 687.139C1340.99 701.226 1356.68 714.38 1372.01 727.883C1385.1 739.402 1386.18 738.818 1392.28 722.98C1400.2 702.355 1409.05 682.119 1417.36 662Z" fill="#7BA3D6"/>
</g>
<defs>
<clipPath id="clip0_1_203">
<rect width="1440" height="840" fill="white"/>
</clipPath>
<clipPath id="clip1_1_203">
<rect width="261" height="200" fill="white" transform="translate(1179 -27)"/>
</clipPath>
</defs>
</svg>
