<svg width="320" height="37" viewBox="0 0 320 37" fill="none" xmlns="http://www.w3.org/2000/svg">
<path d="M26 1C12.245 1 1 12.2 1 25.9V37H51V25.9C51 12.2 39.8052 1 26 1ZM1.95382 36.05V25.9C1.95382 12.7 12.747 1.95 26 1.95C39.253 1.95 50.0462 12.7 50.0462 25.9V36H1.95382V36.05Z" fill="#2D3185"/>
<path d="M42.4659 27.1H29.8153L42.1647 23.8C42.4157 23.75 42.5663 23.45 42.5161 23.2C42.4659 22.95 42.1647 22.8 41.9137 22.85L29.6145 26.2L40.759 19.8C41.01 19.65 41.0602 19.4 40.9096 19.15C40.759 18.9 40.508 18.85 40.257 19L29.0623 25.4L38.249 16.25C38.3494 16.15 38.3996 16.05 38.3996 15.9C38.3996 15.75 38.3494 15.65 38.249 15.55C38.1486 15.45 38.0482 15.4 37.8976 15.4C37.747 15.4 37.6466 15.45 37.5462 15.55L28.4598 24.65L34.986 13.4C35.1366 13.15 35.0362 12.9 34.8354 12.75C34.7349 12.7 34.5843 12.65 34.4839 12.7C34.3835 12.75 34.2831 12.8 34.1827 12.9L27.5562 24.35L31.0201 11.55C31.0703 11.3 30.9197 11.05 30.6687 10.95C30.4177 10.9 30.1667 11.05 30.0663 11.3L26.7028 23.8V10.8C26.7028 10.55 26.502 10.35 26.251 10.35C26 10.35 25.7992 10.55 25.7992 10.8V23.8L22.3855 11.2C22.3353 11.1 22.2851 10.95 22.1847 10.9C22.0843 10.85 21.9337 10.8 21.8333 10.85C21.5823 10.9 21.4317 11.2 21.4819 11.45L24.9458 24.35L18.1687 12.75C18.0181 12.5 17.7671 12.45 17.5161 12.6C17.4157 12.65 17.3153 12.75 17.3153 12.9C17.2651 13 17.3153 13.15 17.3655 13.25L23.992 24.7L14.6546 15.35C14.5542 15.25 14.4538 15.2 14.3032 15.2C14.1526 15.2 14.0522 15.25 13.9518 15.35C13.8514 15.45 13.8012 15.55 13.8012 15.7C13.8012 15.85 13.8514 15.95 13.9518 16.05L23.3394 25.4L11.8936 18.8C11.7932 18.75 11.6426 18.7 11.5422 18.75C11.4418 18.8 11.3414 18.85 11.241 18.95C11.0904 19.2 11.1908 19.45 11.3916 19.6L22.8374 26.2L10.1366 22.8C10.0362 22.75 9.88555 22.8 9.78515 22.85C9.68475 22.9 9.58434 23 9.58434 23.15C9.53414 23.25 9.58434 23.4 9.63455 23.5C9.68475 23.6 9.78515 23.7 9.93575 23.7L22.5864 27.1H9.53414C9.28314 27.1 9.08234 27.3 9.08234 27.55C9.08234 27.8 9.28314 28 9.53414 28H42.4659C42.7169 28 42.9177 27.8 42.9177 27.55C42.9177 27.3 42.7671 27.1 42.4659 27.1Z" fill="#2D3185"/>
<path d="M101.867 18.5615C101.849 18.9808 101.785 19.4023 101.676 19.8262C101.566 20.2454 101.402 20.6305 101.184 20.9814C100.965 21.3324 100.68 21.6149 100.329 21.8291C99.9827 22.0387 99.5635 22.1436 99.0713 22.1436C98.7568 22.1436 98.4811 22.0889 98.2441 21.9795C98.0117 21.8656 97.8203 21.7038 97.6699 21.4941C97.5241 21.2845 97.4215 21.0316 97.3623 20.7354C97.3076 20.4391 97.2985 20.1087 97.335 19.7441L97.6836 15.957H98.6885L98.3398 19.7441C98.3125 20.0768 98.3193 20.348 98.3604 20.5576C98.4059 20.7673 98.4743 20.929 98.5654 21.043C98.6566 21.1523 98.7591 21.2275 98.873 21.2686C98.9915 21.3096 99.1055 21.3301 99.2148 21.3301C99.4883 21.3301 99.7321 21.2594 99.9463 21.1182C100.16 20.9723 100.34 20.7741 100.486 20.5234C100.637 20.2682 100.753 19.9743 100.835 19.6416C100.917 19.3044 100.967 18.9443 100.985 18.5615C101.017 17.8825 100.985 17.2581 100.89 16.6885C100.799 16.1188 100.641 15.613 100.418 15.1709C100.199 14.7288 99.9121 14.3551 99.5566 14.0498C99.2012 13.7445 98.7773 13.512 98.2852 13.3525C97.793 13.193 97.2301 13.1133 96.5967 13.1133C96.0225 13.1133 95.4915 13.2021 95.0039 13.3799C94.5208 13.5531 94.0856 13.8037 93.6982 14.1318C93.3154 14.46 92.985 14.8542 92.707 15.3145C92.4336 15.7747 92.2171 16.2943 92.0576 16.873C91.9027 17.4473 91.8115 18.0671 91.7842 18.7324C91.7523 19.416 91.7887 20.0449 91.8936 20.6191C91.9984 21.1888 92.167 21.6969 92.3994 22.1436C92.6364 22.5947 92.9349 22.9753 93.2949 23.2852C93.6549 23.5996 94.0719 23.8366 94.5459 23.9961C95.0199 24.1602 95.5485 24.2422 96.1318 24.2422C96.5329 24.2422 96.9385 24.1943 97.3486 24.0986C97.7633 24.0029 98.1097 23.873 98.3877 23.709L98.6475 24.4883C98.3285 24.6934 97.9297 24.846 97.4512 24.9463C96.9772 25.0465 96.5283 25.0967 96.1045 25.0967C95.4118 25.0967 94.7783 25.001 94.2041 24.8096C93.6344 24.6227 93.1286 24.347 92.6865 23.9824C92.249 23.6224 91.8844 23.1826 91.5928 22.6631C91.3011 22.1481 91.0869 21.5602 90.9502 20.8994C90.8135 20.2386 90.7611 19.5163 90.793 18.7324C90.8249 17.985 90.9365 17.2809 91.1279 16.6201C91.3239 15.9593 91.5905 15.36 91.9277 14.8223C92.265 14.2845 92.666 13.8219 93.1309 13.4346C93.6003 13.0426 94.1266 12.7419 94.71 12.5322C95.2979 12.3226 95.9359 12.2178 96.624 12.2178C97.3258 12.2178 97.9616 12.3135 98.5312 12.5049C99.1009 12.6963 99.5999 12.972 100.028 13.332C100.461 13.6921 100.819 14.1318 101.102 14.6514C101.384 15.1709 101.589 15.7588 101.717 16.415C101.849 17.0713 101.899 17.7868 101.867 18.5615ZM94.8467 19.1426C94.8148 19.4616 94.8148 19.7464 94.8467 19.9971C94.8786 20.2477 94.9401 20.4596 95.0312 20.6328C95.1224 20.806 95.2409 20.9382 95.3867 21.0293C95.5371 21.1159 95.7126 21.1592 95.9131 21.1592C96.0452 21.1592 96.1842 21.1273 96.3301 21.0635C96.4759 20.9951 96.6195 20.8903 96.7607 20.749C96.902 20.6077 97.0342 20.4232 97.1572 20.1953C97.2803 19.9674 97.3828 19.694 97.4648 19.375L97.916 19.8672C97.8112 20.2409 97.6745 20.569 97.5059 20.8516C97.3418 21.1341 97.1572 21.3711 96.9521 21.5625C96.7471 21.7539 96.5283 21.8997 96.2959 22C96.068 22.0957 95.8356 22.1436 95.5986 22.1436C95.266 22.1436 94.9743 22.0729 94.7236 21.9316C94.473 21.7858 94.2702 21.5807 94.1152 21.3164C93.9603 21.0521 93.8509 20.7376 93.7871 20.373C93.7279 20.0039 93.7188 19.5938 93.7598 19.1426C93.8008 18.6641 93.8851 18.222 94.0127 17.8164C94.1403 17.4108 94.2975 17.0485 94.4844 16.7295C94.6758 16.4105 94.89 16.1393 95.127 15.916C95.3685 15.6927 95.6237 15.5241 95.8926 15.4102C96.1615 15.2917 96.4372 15.2324 96.7197 15.2324C97.2119 15.2324 97.5993 15.3053 97.8818 15.4512C98.1644 15.5924 98.4333 15.7611 98.6885 15.957L98.1074 16.6338C97.9753 16.5062 97.8021 16.3877 97.5879 16.2783C97.3737 16.1689 97.1208 16.1143 96.8291 16.1143C96.5785 16.1143 96.3438 16.1781 96.125 16.3057C95.9062 16.4333 95.708 16.6247 95.5303 16.8799C95.3571 17.1351 95.2113 17.4518 95.0928 17.8301C94.9743 18.2038 94.8923 18.6413 94.8467 19.1426ZM113.329 17.0439V20.6875C113.206 20.8698 113.01 21.0749 112.741 21.3027C112.472 21.526 112.101 21.722 111.627 21.8906C111.157 22.0547 110.551 22.1367 109.808 22.1367C109.202 22.1367 108.644 22.0319 108.134 21.8223C107.628 21.6081 107.188 21.2982 106.814 20.8926C106.445 20.4824 106.158 19.9857 105.953 19.4023C105.752 18.8145 105.652 18.1491 105.652 17.4062V16.6338C105.652 15.891 105.739 15.2279 105.912 14.6445C106.09 14.0612 106.349 13.5667 106.691 13.1611C107.033 12.751 107.452 12.4411 107.949 12.2314C108.446 12.0173 109.015 11.9102 109.658 11.9102C110.419 11.9102 111.055 12.0423 111.565 12.3066C112.08 12.5664 112.481 12.9264 112.768 13.3867C113.06 13.847 113.247 14.3711 113.329 14.959H112.01C111.95 14.599 111.832 14.2708 111.654 13.9746C111.481 13.6784 111.233 13.4414 110.909 13.2637C110.585 13.0814 110.168 12.9902 109.658 12.9902C109.198 12.9902 108.799 13.0745 108.462 13.2432C108.124 13.4118 107.846 13.6533 107.628 13.9678C107.409 14.2822 107.245 14.6628 107.136 15.1094C107.031 15.556 106.978 16.0596 106.978 16.6201V17.4062C106.978 17.9805 107.044 18.4932 107.177 18.9443C107.313 19.3955 107.507 19.7806 107.758 20.0996C108.008 20.4141 108.307 20.6533 108.653 20.8174C109.004 20.9814 109.391 21.0635 109.815 21.0635C110.285 21.0635 110.665 21.0247 110.957 20.9473C111.248 20.8652 111.476 20.7695 111.64 20.6602C111.804 20.5462 111.93 20.4391 112.016 20.3389V18.1104H109.713V17.0439H113.329ZM121.441 12.9287L118.146 22H116.799L120.593 12.0469H121.461L121.441 12.9287ZM124.203 22L120.901 12.9287L120.88 12.0469H121.749L125.556 22H124.203ZM124.032 18.3154V19.3955H118.44V18.3154H124.032ZM129.129 12.0469H132.424C133.171 12.0469 133.803 12.1608 134.318 12.3887C134.837 12.6165 135.231 12.9538 135.5 13.4004C135.774 13.8424 135.91 14.387 135.91 15.0342C135.91 15.4899 135.817 15.9069 135.63 16.2852C135.448 16.6589 135.184 16.9779 134.837 17.2422C134.495 17.502 134.085 17.6956 133.607 17.8232L133.238 17.9668H130.141L130.127 16.8936H132.465C132.939 16.8936 133.333 16.8115 133.648 16.6475C133.962 16.4788 134.199 16.2533 134.359 15.9707C134.518 15.6882 134.598 15.376 134.598 15.0342C134.598 14.6514 134.523 14.3164 134.372 14.0293C134.222 13.7422 133.985 13.5212 133.661 13.3662C133.342 13.2067 132.93 13.127 132.424 13.127H130.449V22H129.129V12.0469ZM134.947 22L132.527 17.4883L133.901 17.4814L136.355 21.918V22H134.947ZM142.689 22H140.611L140.625 20.9268H142.689C143.4 20.9268 143.993 20.7786 144.467 20.4824C144.941 20.1816 145.296 19.7624 145.533 19.2246C145.775 18.6823 145.896 18.0488 145.896 17.3242V16.7158C145.896 16.1462 145.827 15.6403 145.69 15.1982C145.554 14.7516 145.353 14.3757 145.089 14.0703C144.825 13.7604 144.501 13.5257 144.118 13.3662C143.74 13.2067 143.305 13.127 142.813 13.127H140.57V12.0469H142.813C143.464 12.0469 144.059 12.1562 144.597 12.375C145.134 12.5892 145.597 12.9014 145.984 13.3115C146.376 13.7171 146.677 14.2093 146.887 14.7881C147.096 15.3623 147.201 16.0094 147.201 16.7295V17.3242C147.201 18.0443 147.096 18.6937 146.887 19.2725C146.677 19.8467 146.374 20.3366 145.978 20.7422C145.586 21.1478 145.112 21.46 144.556 21.6787C144.004 21.8929 143.382 22 142.689 22ZM141.315 12.0469V22H139.996V12.0469H141.315ZM157.747 20.9268V22H152.476V20.9268H157.747ZM152.743 12.0469V22H151.424V12.0469H152.743ZM157.05 16.3262V17.3994H152.476V16.3262H157.05ZM157.679 12.0469V13.127H152.476V12.0469H157.679ZM169.277 12.0469V22H167.951L162.94 14.3232V22H161.621V12.0469H162.94L167.971 19.7441V12.0469H169.277ZM179.864 18.835H181.176C181.108 19.4639 180.928 20.0267 180.636 20.5234C180.344 21.0202 179.932 21.4144 179.399 21.7061C178.866 21.9932 178.2 22.1367 177.403 22.1367C176.819 22.1367 176.288 22.0273 175.81 21.8086C175.336 21.5898 174.928 21.2799 174.586 20.8789C174.244 20.4733 173.98 19.988 173.793 19.4229C173.611 18.8532 173.52 18.2197 173.52 17.5225V16.5312C173.52 15.834 173.611 15.2028 173.793 14.6377C173.98 14.068 174.247 13.5804 174.593 13.1748C174.944 12.7692 175.366 12.457 175.858 12.2383C176.35 12.0195 176.904 11.9102 177.519 11.9102C178.271 11.9102 178.907 12.0514 179.426 12.334C179.946 12.6165 180.349 13.0085 180.636 13.5098C180.928 14.0065 181.108 14.583 181.176 15.2393H179.864C179.8 14.7744 179.681 14.3757 179.508 14.043C179.335 13.7057 179.089 13.446 178.77 13.2637C178.451 13.0814 178.034 12.9902 177.519 12.9902C177.077 12.9902 176.687 13.0745 176.35 13.2432C176.017 13.4118 175.737 13.651 175.509 13.9609C175.286 14.2708 175.117 14.6423 175.003 15.0752C174.889 15.5081 174.832 15.9889 174.832 16.5176V17.5225C174.832 18.0101 174.882 18.4681 174.983 18.8965C175.088 19.3249 175.245 19.7008 175.454 20.0244C175.664 20.348 175.931 20.6032 176.254 20.79C176.578 20.9723 176.961 21.0635 177.403 21.0635C177.963 21.0635 178.41 20.9746 178.743 20.7969C179.075 20.6191 179.326 20.3639 179.494 20.0312C179.668 19.6986 179.791 19.2998 179.864 18.835ZM186.629 12.0469V22H185.31V12.0469H186.629ZM194.741 12.0469V22H193.442V12.0469H194.741ZM197.94 12.0469V13.127H190.25V12.0469H197.94ZM202.224 12.0469L204.808 17.0439L207.399 12.0469H208.896L205.464 18.2812V22H204.145V18.2812L200.713 12.0469H202.224ZM218.218 18.835H219.531C219.462 19.4639 219.282 20.0267 218.991 20.5234C218.699 21.0202 218.286 21.4144 217.753 21.7061C217.22 21.9932 216.555 22.1367 215.757 22.1367C215.174 22.1367 214.643 22.0273 214.164 21.8086C213.69 21.5898 213.283 21.2799 212.941 20.8789C212.599 20.4733 212.335 19.988 212.148 19.4229C211.966 18.8532 211.874 18.2197 211.874 17.5225V16.5312C211.874 15.834 211.966 15.2028 212.148 14.6377C212.335 14.068 212.601 13.5804 212.948 13.1748C213.299 12.7692 213.72 12.457 214.212 12.2383C214.704 12.0195 215.258 11.9102 215.873 11.9102C216.625 11.9102 217.261 12.0514 217.781 12.334C218.3 12.6165 218.703 13.0085 218.991 13.5098C219.282 14.0065 219.462 14.583 219.531 15.2393H218.218C218.154 14.7744 218.036 14.3757 217.863 14.043C217.689 13.7057 217.443 13.446 217.124 13.2637C216.805 13.0814 216.388 12.9902 215.873 12.9902C215.431 12.9902 215.042 13.0745 214.704 13.2432C214.372 13.4118 214.091 13.651 213.864 13.9609C213.64 14.2708 213.472 14.6423 213.358 15.0752C213.244 15.5081 213.187 15.9889 213.187 16.5176V17.5225C213.187 18.0101 213.237 18.4681 213.337 18.8965C213.442 19.3249 213.599 19.7008 213.809 20.0244C214.019 20.348 214.285 20.6032 214.609 20.79C214.932 20.9723 215.315 21.0635 215.757 21.0635C216.318 21.0635 216.764 20.9746 217.097 20.7969C217.43 20.6191 217.68 20.3639 217.849 20.0312C218.022 19.6986 218.145 19.2998 218.218 18.835ZM229.892 20.9268V22H224.621V20.9268H229.892ZM224.888 12.0469V22H223.568V12.0469H224.888ZM229.194 16.3262V17.3994H224.621V16.3262H229.194ZM229.823 12.0469V13.127H224.621V12.0469H229.823ZM241.422 12.0469V22H240.096L235.085 14.3232V22H233.766V12.0469H235.085L240.116 19.7441V12.0469H241.422ZM249.472 12.0469V22H248.173V12.0469H249.472ZM252.672 12.0469V13.127H244.981V12.0469H252.672ZM262.711 20.9268V22H257.441V20.9268H262.711ZM257.707 12.0469V22H256.388V12.0469H257.707ZM262.014 16.3262V17.3994H257.441V16.3262H262.014ZM262.643 12.0469V13.127H257.441V12.0469H262.643ZM266.585 12.0469H269.88C270.627 12.0469 271.259 12.1608 271.774 12.3887C272.293 12.6165 272.687 12.9538 272.956 13.4004C273.23 13.8424 273.366 14.387 273.366 15.0342C273.366 15.4899 273.273 15.9069 273.086 16.2852C272.904 16.6589 272.639 16.9779 272.293 17.2422C271.951 17.502 271.541 17.6956 271.063 17.8232L270.694 17.9668H267.597L267.583 16.8936H269.921C270.395 16.8936 270.789 16.8115 271.104 16.6475C271.418 16.4788 271.655 16.2533 271.815 15.9707C271.974 15.6882 272.054 15.376 272.054 15.0342C272.054 14.6514 271.979 14.3164 271.828 14.0293C271.678 13.7422 271.441 13.5212 271.117 13.3662C270.798 13.2067 270.386 13.127 269.88 13.127H267.904V22H266.585V12.0469ZM272.402 22L269.983 17.4883L271.357 17.4814L273.811 21.918V22H272.402Z" fill="#171C8F"/>
</svg>
