<svg width="32" height="32" viewBox="0 0 32 32" fill="none" xmlns="http://www.w3.org/2000/svg">
<path d="M16 3C7.19679 3 0 10.4667 0 19.6V27H32V19.6C32 10.4667 24.8353 3 16 3ZM0.610442 26.3667V19.6C0.610442 10.8 7.51807 3.63333 16 3.63333C24.4819 3.63333 31.3896 10.8 31.3896 19.6V26.3333H0.610442V26.3667Z" fill="#2D3185"/>
<path d="M26.5382 20.3999H18.4418L26.3454 18.1999C26.5061 18.1666 26.6024 17.9666 26.5703 17.7999C26.5382 17.6333 26.3454 17.5333 26.1848 17.5666L18.3133 19.7999L25.4458 15.5333C25.6065 15.4333 25.6386 15.2666 25.5422 15.0999C25.4458 14.9333 25.2852 14.8999 25.1245 14.9999L17.9599 19.2666L23.8394 13.1666C23.9037 13.0999 23.9358 13.0333 23.9358 12.9333C23.9358 12.8333 23.9037 12.7666 23.8394 12.6999C23.7751 12.6333 23.7109 12.5999 23.6145 12.5999C23.5181 12.5999 23.4539 12.6333 23.3896 12.6999L17.5743 18.7666L21.751 11.2666C21.8474 11.0999 21.7832 10.9333 21.6547 10.8333C21.5904 10.7999 21.494 10.7666 21.4298 10.7999C21.3655 10.8333 21.3012 10.8666 21.237 10.9333L16.996 18.5666L19.2129 10.0333C19.245 9.86661 19.1486 9.69994 18.988 9.63328C18.8273 9.59994 18.6667 9.69994 18.6025 9.86661L16.4498 18.1999V9.53328C16.4498 9.36661 16.3213 9.23328 16.1607 9.23328C16 9.23328 15.8715 9.36661 15.8715 9.53328V18.1999L13.6868 9.79994C13.6547 9.73328 13.6225 9.63328 13.5583 9.59994C13.494 9.56661 13.3976 9.53328 13.3334 9.56661C13.1727 9.59994 13.0763 9.79994 13.1085 9.96661L15.3253 18.5666L10.988 10.8333C10.8916 10.6666 10.731 10.6333 10.5703 10.7333C10.5061 10.7666 10.4418 10.8333 10.4418 10.9333C10.4097 10.9999 10.4418 11.0999 10.4739 11.1666L14.7149 18.7999L8.73899 12.5666C8.67474 12.4999 8.61048 12.4666 8.5141 12.4666C8.41771 12.4666 8.35345 12.4999 8.2892 12.5666C8.22494 12.6333 8.19281 12.6999 8.19281 12.7999C8.19281 12.8999 8.22494 12.9666 8.2892 13.0333L14.2972 19.2666L6.97193 14.8666C6.90767 14.8333 6.81128 14.7999 6.74703 14.8333C6.68277 14.8666 6.61851 14.8999 6.55426 14.9666C6.45787 15.1333 6.52213 15.2999 6.65064 15.3999L13.9759 19.7999L5.84743 17.5333C5.78317 17.4999 5.68679 17.5333 5.62253 17.5666C5.55827 17.5999 5.49401 17.6666 5.49401 17.7666C5.46189 17.8333 5.49401 17.9333 5.52614 17.9999C5.55827 18.0666 5.62253 18.1333 5.71891 18.1333L13.8153 20.3999H5.46189C5.30124 20.3999 5.17273 20.5333 5.17273 20.6999C5.17273 20.8666 5.30124 20.9999 5.46189 20.9999H26.5382C26.6988 20.9999 26.8273 20.8666 26.8273 20.6999C26.8273 20.5333 26.731 20.3999 26.5382 20.3999Z" fill="#2D3185"/>
</svg>
