<svg width="261" height="840" viewBox="0 0 261 840" fill="none" xmlns="http://www.w3.org/2000/svg">
<g clip-path="url(#clip0_3302_2)">
<path d="M32.9576 27.7741C20.9136 38.2538 11.5305 50.783 4.2481 64.8957C-3.45446 79.8933 -0.466802 99.5952 11.0637 111.426C23.1544 123.815 37.8593 125.678 55.3184 117.667C72.9176 109.609 86.5488 96.428 100.367 83.4797C103.448 80.592 105.875 76.6795 110.45 75.1891C110.777 76.4932 111.15 77.1453 111.01 77.6577C110.263 80.4523 109.376 83.2003 108.583 85.9483C103.168 105.091 101.627 124.327 106.622 143.89C114.185 173.326 146.442 182.641 168.383 161.542C179.119 151.249 183.788 138.114 185.888 123.862C186.775 117.76 186.915 111.519 187.476 104.486C191.444 107.793 191.957 111.426 193.264 114.593C198.399 126.843 204.841 138.161 214.598 147.429C221.927 154.369 230.797 158.049 240.46 159.353C248.956 160.517 256.052 157.909 260.907 152.739V100.34V49.8514V-27H107.322C103.261 -23.7396 99.1996 -20.5724 95.0916 -17.7313C74.0379 -3.1062 52.4241 10.9134 32.9576 27.7741Z" fill="#E06BA9"/>
</g>
<path d="M238.36 662C243.174 662.817 243.523 666.008 244.416 668.46C258.626 707.492 270.195 747.302 273.612 788.785C279.28 857.081 208.543 905.881 154.617 890.042C119.404 879.691 95.4497 854.396 76.9308 823.77C59.2272 794.35 52.2001 760.689 40.7083 728.817C39.66 725.899 37.5636 722.357 40.4753 719.672C43.4259 716.987 46.7648 719.478 49.4048 720.956C67.1084 731.074 84.7732 741.309 102.322 751.699C113.192 758.12 114.823 757.731 118.472 745.473C123.869 727.183 129.071 708.815 134.273 690.486C136.719 681.886 139.825 680.096 147.202 687.139C161.994 701.226 177.678 714.38 193.014 727.883C206.097 739.402 207.184 738.818 213.28 722.98C221.2 702.355 230.052 682.119 238.36 662Z" fill="#7BA3D6"/>
<defs>
<clipPath id="clip0_3302_2">
<rect width="261" height="200" fill="white" transform="translate(0 -27)"/>
</clipPath>
</defs>
</svg>
