<svg width="130" height="130" viewBox="0 0 130 130" fill="none" xmlns="http://www.w3.org/2000/svg">
<path d="M68 129C68 129.25 67.85 129.4 67.6 129.4L64.1 129.35C61.65 129.3 60.2 127.6 60.25 124.95L60.4 113.15C60.45 110.5 61.95 108.8 64.35 108.85L67.85 108.9C68.1 108.9 68.25 109.05 68.25 109.3L68 129ZM64.95 111.55H64.3C63.4 111.55 63.25 112.2 63.25 113.8L63.1 124.3C63.1 125.9 63.25 126.55 64.1 126.6H64.75C65 126.6 65.15 126.45 65.15 126.2L65.35 112C65.35 111.75 65.2 111.55 64.95 111.55Z" fill="#171C8F"/>
<path d="M57.65 108.65L53.75 127.95C53.7 128.2 53.55 128.3 53.25 128.25L51.25 127.85C51 127.8 50.9 127.6 50.95 127.35L54.85 108.05C54.9 107.8 55.05 107.65 55.35 107.75L57.35 108.15C57.55 108.2 57.7 108.4 57.65 108.65Z" fill="#171C8F"/>
<path d="M51.8 107.35L44.4 125.6C44.3 125.85 44.1 125.95 43.85 125.85L40.6 124.55C38.45 123.7 37.6 121.5 38.6 119.05L39.95 115.7C40.5 114.35 41.3 113.55 42.3 113.1C42.45 113 42.6 112.9 42.65 112.7L44.55 104.65C44.65 104.2 44.85 104.15 45.05 104.25L46.9 105C47.15 105.1 47.25 105.25 47.15 105.65L45.35 112.75C45.3 113 45.35 113.2 45.6 113.3L45.8 113.4C46.05 113.5 46.25 113.4 46.35 113.15L49.1 106.3C49.2 106.05 49.4 105.95 49.65 106.05L51.55 106.8C51.8 106.9 51.85 107.15 51.8 107.35ZM44.2 115.65C43.5 115.35 43 115.9 42.4 117.35L41.5 119.5C40.9 120.95 40.95 121.7 41.6 122L42.2 122.25C42.45 122.35 42.65 122.25 42.75 122L45 116.4C45.1 116.15 45 115.95 44.75 115.85L44.2 115.65Z" fill="#171C8F"/>
<path d="M31.5 119.5C31.35 119.7 31.15 119.75 30.95 119.6L26.85 116.8C26.65 116.65 26.6 116.45 26.75 116.25L27.75 114.8C27.9 114.6 28.1 114.55 28.3 114.7L30 115.85C30.2 116 30.45 115.95 30.55 115.75L33.6 111.2C33.75 111 33.7 110.75 33.5 110.65L31.8 109.5C31.6 109.35 31.55 109.15 31.7 108.95L32.7 107.5C32.85 107.3 33.05 107.25 33.25 107.4L34.95 108.55C35.15 108.7 35.4 108.65 35.5 108.45L38.7 103.75C38.85 103.55 38.8 103.3 38.6 103.2L36.9 102.05C36.7 101.9 36.65 101.7 36.8 101.5L37.8 100.05C37.95 99.85 38.15 99.8 38.35 99.95L42.45 102.75C42.65 102.9 42.7 103.1 42.55 103.3L31.5 119.5Z" fill="#171C8F"/>
<path d="M24.4 109.5C22.5 111.35 20.25 111.45 18.55 109.7C16.85 107.95 17.05 105.7 18.95 103.85L20.55 102.3C20.75 102.15 20.95 102.15 21.15 102.3L22.55 103.8C22.7 104 22.7 104.2 22.55 104.4L21.4 105.5C20.25 106.6 19.9 107.2 20.5 107.85C21.1 108.5 21.7 108.1 22.85 107L30.6 99.4999C31.75 98.3999 32.1 97.7999 31.5 97.1499C30.9 96.5499 30.3 96.8999 29.15 97.9999L28 99.0999C27.8 99.2499 27.6 99.2499 27.4 99.0999L26 97.5999C25.85 97.3999 25.85 97.1999 26 96.9999L27.6 95.4499C29.5 93.5999 31.75 93.4999 33.45 95.2499C35.15 96.9999 34.95 99.2499 33.05 101.1L24.4 109.5Z" fill="#171C8F"/>
<path d="M12.8 102C12.6 102.15 12.35 102.1 12.25 101.85L9.05 96.7999C8.9 96.5999 8.95 96.3999 9.2 96.2499L10.8 95.2499C11 95.0999 11.25 95.1499 11.35 95.3999L12 96.3999C12.15 96.5999 12.35 96.6499 12.55 96.5499L26.9 87.4999C27.1 87.3499 27.3 87.3999 27.45 87.6499L28.55 89.3999C28.7 89.5999 28.65 89.8499 28.4 89.9499L14.05 98.9999C13.85 99.1499 13.8 99.3499 13.9 99.5499L14.5 100.5C14.65 100.7 14.6 100.9 14.35 101.05L12.8 102Z" fill="#171C8F"/>
<path d="M10.05 89.65C7.55 90.55 5.45 89.8 4.6 87.5C3.75 85.2 4.85 83.25 7.3 82.3L18.65 78.1C21.15 77.2 23.25 77.95 24.1 80.25C24.95 82.55 23.85 84.5 21.4 85.45L10.05 89.65ZM21.55 81.2C21.25 80.4 20.55 80.45 19.05 81L8.95 84.75C7.45 85.3 6.9 85.7 7.2 86.5C7.5 87.3 8.2 87.25 9.7 86.7L19.8 82.95C21.25 82.45 21.85 82.05 21.55 81.2Z" fill="#171C8F"/>
<path d="M21.65 74.1998L2.09999 76.6998C1.84999 76.7498 1.69999 76.5998 1.64999 76.3498L1.19999 72.8999C0.899994 70.5998 2.39999 68.7998 4.99999 68.4498L8.59999 67.9998C10.05 67.7998 11.15 68.0998 12 68.7998C12.15 68.8998 12.3 68.9498 12.55 68.8998L20.5 66.5998C20.95 66.4998 21.1 66.5998 21.1 66.8498L21.35 68.8498C21.4 69.0998 21.3 69.2998 20.9 69.3998L13.8 71.2999C13.55 71.3499 13.4 71.4998 13.45 71.7498L13.5 71.9498C13.55 72.1998 13.7 72.3499 13.95 72.2999L21.3 71.3498C21.55 71.2998 21.7 71.4498 21.75 71.6998L22 73.7498C22.05 73.9998 21.9 74.1998 21.65 74.1998ZM10.7 71.6998C10.6 70.9498 9.89999 70.7498 8.29999 70.9498L5.99999 71.2498C4.44999 71.4498 3.79999 71.8499 3.89999 72.5499L3.99999 73.1499C4.04999 73.3999 4.19999 73.5498 4.44999 73.4998L10.4 72.7498C10.65 72.6998 10.8 72.5499 10.75 72.2999L10.7 71.6998Z" fill="#171C8F"/>
<path d="M20.9 62.6499L14 62.0499C13.9 62.0499 13.75 62.0499 13.65 62.0499L1.1 63.3999C0.849998 63.4499 0.699997 63.2999 0.699997 63.0499L0.899997 60.8499C0.899997 60.6499 1.1 60.4999 1.35 60.4999L8.75 60.1999C8.9 60.1999 8.9 59.9499 8.75 59.9499L1.5 58.3999C1.25 58.3499 1.1 58.1499 1.1 57.9999L1.3 55.7999C1.3 55.5999 1.5 55.4499 1.75 55.5499L13.9 59.0499C14 59.0999 14.15 59.0999 14.25 59.0999L21.15 59.6999C21.4 59.6999 21.55 59.8999 21.5 60.1499L21.3 62.2999C21.3 62.5499 21.1 62.6999 20.9 62.6499Z" fill="#171C8F"/>
<path d="M7.94999 36.0998C7.74999 35.9998 7.64999 35.7498 7.79999 35.5498L9.54999 32.5498C10.8 30.4498 13 30.0498 15.3 31.3498L25.5 37.2998C27.8 38.6498 28.5 40.7498 27.3 42.8498L25.55 45.8498C25.45 46.0498 25.2 46.0998 25 45.9998L7.94999 36.0998ZM24.6 42.0498L24.95 41.4998C25.4 40.7498 24.9 40.2498 23.5 39.4498L14.4 34.1498C13.05 33.3498 12.35 33.1498 11.9 33.8998L11.6 34.4998C11.5 34.6998 11.55 34.8998 11.75 35.0498L24.05 42.1998C24.25 42.2998 24.45 42.2998 24.6 42.0498Z" fill="#171C8F"/>
<path d="M30.75 37.15L15.9 24.2C15.7 24.05 15.7 23.85 15.85 23.6L17.2 22.05C17.35 21.85 17.6 21.85 17.8 22L32.65 34.95C32.85 35.1 32.85 35.3 32.7 35.55L31.35 37.1C31.2 37.25 30.95 37.3 30.75 37.15Z" fill="#171C8F"/>
<path d="M34.75 32.6498L22.5 17.2498C22.35 17.0498 22.35 16.8498 22.55 16.6498L25.3 14.4498C27.1 12.9998 29.4 13.3498 31.05 15.3998L33.3 18.2498C34.2 19.3998 34.5 20.4498 34.4 21.5498C34.4 21.6998 34.4 21.8998 34.6 22.0498L40.65 27.6498C40.95 27.9498 40.95 28.1498 40.75 28.2998L39.2 29.5498C39 29.6998 38.8 29.7498 38.5 29.4498L33.25 24.4498C33.1 24.2498 32.85 24.2498 32.65 24.3998L32.5 24.4998C32.3 24.6498 32.3 24.8998 32.45 25.0998L37 30.8498C37.15 31.0498 37.15 31.2498 36.95 31.4498L35.35 32.7498C35.15 32.8498 34.95 32.8498 34.75 32.6498ZM31.3 21.9998C31.9 21.5498 31.7 20.7998 30.7 19.5998L29.25 17.7998C28.25 16.5498 27.6 16.1998 27 16.6498L26.5 17.0498C26.3 17.1998 26.3 17.4498 26.45 17.6498L30.2 22.3498C30.35 22.5498 30.6 22.5498 30.8 22.3998L31.3 21.9998Z" fill="#171C8F"/>
<path d="M34.15 9.05C34.05 8.85 34.1 8.6 34.35 8.5L38.8 6.3C39 6.2 39.25 6.25 39.35 6.5L40.15 8.05C40.25 8.25 40.2 8.5 39.95 8.6L38.05 9.5C37.85 9.6 37.75 9.85 37.85 10.05L40.3 14.95C40.4 15.15 40.65 15.25 40.85 15.15L42.7 14.25C42.9 14.15 43.15 14.2 43.25 14.45L44.05 16C44.15 16.2 44.1 16.45 43.85 16.55L42 17.45C41.8 17.55 41.7 17.8 41.8 18L44.35 23.1C44.45 23.3 44.7 23.4 44.9 23.3L46.75 22.4C46.95 22.3 47.2 22.35 47.3 22.6L48.1 24.15C48.2 24.35 48.15 24.6 47.9 24.7L43.45 26.9C43.25 27 43 26.95 42.9 26.7L34.15 9.05Z" fill="#171C8F"/>
<path d="M46.4 7.79981C45.75 5.24981 46.75 3.19981 49.1 2.59981C51.45 1.99981 53.3 3.24981 53.95 5.84981L54.5 7.99981C54.55 8.24981 54.45 8.44981 54.2 8.49981L52.2 8.99981C51.95 9.04981 51.75 8.94981 51.7 8.69981L51.3 7.14981C50.9 5.59981 50.55 4.99981 49.75 5.19981C48.9 5.39981 48.9 6.09981 49.3 7.64981L51.95 18.0998C52.35 19.6498 52.65 20.2498 53.5 20.0498C54.3 19.8498 54.35 19.1498 53.95 17.5998L53.55 16.0498C53.5 15.7998 53.6 15.5998 53.85 15.5498L55.85 15.0498C56.1 14.9998 56.3 15.0998 56.35 15.3498L56.9 17.4998C57.55 20.0498 56.55 22.0998 54.2 22.6998C51.85 23.2998 50 22.0498 49.35 19.4498L46.4 7.79981Z" fill="#171C8F"/>
<path d="M58.65 1.3999C58.65 1.1499 58.8 0.999903 59.05 0.949903L65.05 0.649902C65.3 0.649902 65.45 0.749903 65.5 1.0499L65.6 2.9499C65.6 3.1999 65.45 3.3499 65.2 3.3999L64 3.4499C63.75 3.4499 63.6 3.6499 63.6 3.8999L64.4 20.8499C64.4 21.0999 64.3 21.2499 64 21.2999L61.95 21.3999C61.7 21.3999 61.55 21.2499 61.5 20.9999L60.7 4.0499C60.7 3.7999 60.5 3.6499 60.25 3.6499L59.15 3.6999C58.9 3.6999 58.75 3.5999 58.7 3.2999L58.65 1.3999Z" fill="#171C8F"/>
<path d="M70.65 5.0998C71.05 2.4998 72.8 1.0498 75.2 1.3998C77.6 1.7998 78.8 3.6998 78.4 6.2998L76.5 18.2998C76.1 20.8998 74.35 22.3498 71.95 21.9998C69.55 21.5998 68.35 19.6998 68.75 17.0998L70.65 5.0998ZM72.35 19.2498C73.2 19.3998 73.5 18.7498 73.75 17.1498L75.45 6.4998C75.7 4.9498 75.65 4.2498 74.8 4.0998C73.95 3.9498 73.65 4.5998 73.4 6.1998L71.7 16.8498C71.45 18.3998 71.5 19.0998 72.35 19.2498Z" fill="#171C8F"/>
<path d="M78.45 22.8L85.9 4.55002C86 4.30002 86.2 4.20002 86.45 4.35002L89.7 5.70002C91.85 6.55002 92.7 8.75002 91.65 11.2L90.3 14.55C89.75 15.9 88.95 16.7 87.95 17.15C87.8 17.25 87.65 17.35 87.6 17.55L85.65 25.6C85.55 26.05 85.35 26.1 85.15 26L83.3 25.25C83.05 25.15 82.95 25 83.05 24.6L84.9 17.5C84.95 17.25 84.9 17.05 84.7 16.95L84.5 16.85C84.25 16.75 84.05 16.85 83.95 17.05L81.15 23.9C81.05 24.15 80.85 24.25 80.6 24.1L78.7 23.3C78.45 23.25 78.35 23 78.45 22.8ZM86.05 14.55C86.75 14.85 87.25 14.3 87.85 12.85L88.7 10.7C89.3 9.25002 89.3 8.50002 88.6 8.20002L88 7.95002C87.75 7.85002 87.55 7.95002 87.45 8.15002L85.15 13.7C85.05 13.95 85.15 14.15 85.35 14.25L86.05 14.55Z" fill="#171C8F"/>
<path d="M88.85 27.8L92.8 22.1C92.85 22 92.95 21.9 93 21.8L98 10.2C98.1 9.94995 98.3 9.89995 98.5 10.05L100.3 11.3C100.45 11.4 100.5 11.65 100.4 11.85L97 18.4C96.95 18.55 97.15 18.65 97.25 18.55L102.2 13.05C102.35 12.85 102.6 12.8 102.75 12.95L104.55 14.2C104.75 14.3 104.75 14.55 104.55 14.7L95.5 23.5C95.4 23.55 95.35 23.7 95.25 23.8L91.3 29.5C91.15 29.7 90.95 29.75 90.75 29.6L88.95 28.35C88.75 28.25 88.7 28 88.85 27.8Z" fill="#171C8F"/>
<path d="M118.35 29.6499C118.55 29.5499 118.75 29.5499 118.9 29.7999L120.65 32.8499C121.9 34.9499 121.15 37.0999 118.85 38.3999L108.65 44.3499C106.35 45.6999 104.15 45.2499 102.9 43.1499L101.15 40.0999C101.05 39.8999 101.1 39.6499 101.3 39.5499L118.35 29.6499ZM104.95 41.1999L105.3 41.7499C105.75 42.4999 106.4 42.2999 107.8 41.4999L116.9 36.1999C118.25 35.3999 118.8 34.8999 118.35 34.1499L118 33.5999C117.9 33.3999 117.65 33.3499 117.45 33.4999L105.15 40.6499C104.9 40.7999 104.85 40.9999 104.95 41.1999Z" fill="#171C8F"/>
<path d="M106.25 48.9999L124.85 42.4499C125.1 42.3499 125.3 42.4499 125.35 42.6999L126.05 44.6499C126.15 44.8999 126.05 45.0999 125.8 45.1499L107.2 51.6999C106.95 51.7999 106.75 51.6999 106.7 51.4499L106 49.4999C105.9 49.2999 106 49.0999 106.25 48.9999Z" fill="#171C8F"/>
<path d="M108.1 54.6499L127.55 51.5999C127.8 51.5499 128 51.6499 128 51.9499L128.55 55.3999C128.9 57.6499 127.5 59.5499 124.85 59.9499L121.3 60.4999C119.85 60.6999 118.75 60.4499 117.85 59.7999C117.7 59.6999 117.55 59.6499 117.3 59.6999L109.4 62.1999C109 62.2999 108.8 62.1999 108.8 61.9499L108.5 59.9999C108.45 59.7499 108.55 59.5499 108.95 59.4499L116 57.3499C116.25 57.2999 116.4 57.0999 116.35 56.8999L116.3 56.6999C116.25 56.4499 116.05 56.2999 115.85 56.3499L108.55 57.4999C108.3 57.5499 108.1 57.4499 108.1 57.1499L107.8 55.0999C107.75 54.8999 107.9 54.6999 108.1 54.6499ZM119.15 56.8999C119.25 57.6499 120 57.7999 121.55 57.5999L123.8 57.2499C125.35 56.9999 126 56.5999 125.9 55.8499L125.8 55.2499C125.75 54.9999 125.55 54.8499 125.35 54.8999L119.4 55.8499C119.15 55.8999 119 56.0999 119.05 56.2999L119.15 56.8999Z" fill="#171C8F"/>
<path d="M128.95 65.8C129.2 65.8 129.35 65.95 129.35 66.25L129.1 71.1999C129.1 71.4499 128.9 71.5999 128.65 71.5999L126.9 71.4999C126.65 71.4999 126.5 71.2999 126.5 71.05L126.6 68.9499C126.6 68.6999 126.45 68.5499 126.2 68.4999L120.75 68.1999C120.5 68.1999 120.35 68.3499 120.3 68.5999L120.2 70.6999C120.2 70.9499 120 71.0999 119.75 71.0999L118 70.9999C117.75 70.9999 117.6 70.8 117.6 70.55L117.7 68.4499C117.7 68.1999 117.55 68.05 117.3 68L111.6 67.6999C111.35 67.6999 111.2 67.8499 111.15 68.0999L111.05 70.1999C111.05 70.4499 110.85 70.5999 110.6 70.5999L109 70.4999C108.75 70.4999 108.6 70.3 108.6 70.05L108.85 65.1C108.85 64.85 109.05 64.7 109.3 64.7L128.95 65.8Z" fill="#171C8F"/>
<path d="M124 77.1C126.55 77.8 127.8 79.65 127.2 82C126.55 84.35 124.55 85.35 122 84.65L119.85 84.05C119.6 84 119.5 83.8 119.55 83.55L120.1 81.55C120.15 81.3 120.35 81.2 120.6 81.25L122.15 81.65C123.7 82.05 124.4 82.05 124.6 81.25C124.85 80.4 124.2 80.05 122.7 79.65L112.3 76.85C110.75 76.45 110.05 76.4 109.85 77.25C109.65 78.05 110.25 78.45 111.75 78.85L113.3 79.25C113.55 79.3 113.65 79.5 113.6 79.75L113.05 81.75C113 82 112.8 82.1 112.55 82.05L110.4 81.45C107.85 80.75 106.6 78.9 107.2 76.55C107.85 74.2 109.85 73.2 112.4 73.9L124 77.1Z" fill="#171C8F"/>
<path d="M123.55 90.8999C123.75 90.9999 123.85 91.2499 123.75 91.4499L121.05 96.7999C120.95 96.9999 120.75 97.0999 120.5 96.9999L118.8 96.1499C118.6 96.0499 118.5 95.7999 118.6 95.5999L119.15 94.5499C119.25 94.3499 119.2 94.0999 118.95 93.9999L103.8 86.2999C103.6 86.1999 103.5 85.9999 103.6 85.7499L104.55 83.8999C104.65 83.6999 104.9 83.5999 105.1 83.6999L120.25 91.3999C120.45 91.4999 120.7 91.4499 120.8 91.1999L121.3 90.1999C121.4 89.9999 121.6 89.8999 121.85 89.9999L123.55 90.8999Z" fill="#171C8F"/>
<path d="M114.35 99.55C116.4 101.2 116.8 103.4 115.3 105.3C113.8 107.2 111.55 107.3 109.45 105.65L100 98.1C97.95 96.45 97.55 94.25 99.05 92.35C100.55 90.45 102.8 90.35 104.9 92L114.35 99.55ZM101.2 94.05C100.65 94.75 101.1 95.3 102.3 96.3L110.7 103.05C111.95 104.05 112.55 104.35 113.1 103.65C113.65 102.95 113.2 102.4 112 101.4L103.6 94.65C102.4 93.65 101.75 93.35 101.2 94.05Z" fill="#171C8F"/>
<path d="M95.2 97.5499L107.4 113C107.55 113.2 107.55 113.4 107.35 113.6L104.6 115.75C102.8 117.15 100.5 116.85 98.85 114.75L96.6 111.9C95.7 110.75 95.4 109.7 95.5 108.6C95.5 108.45 95.5 108.25 95.3 108.1L89.25 102.45C88.95 102.15 88.95 101.95 89.15 101.8L90.7 100.55C90.9 100.4 91.1 100.35 91.4 100.65L96.7 105.75C96.85 105.95 97.1 105.95 97.3 105.8L97.45 105.65C97.65 105.5 97.65 105.25 97.5 105.05L92.9 99.2499C92.75 99.0499 92.75 98.8499 92.95 98.6499L94.55 97.3999C94.8 97.2999 95.05 97.3499 95.2 97.5499ZM98.65 108.25C98.05 108.7 98.25 109.45 99.25 110.7L100.65 112.5C101.65 113.75 102.3 114.1 102.85 113.65L103.35 113.25C103.55 113.1 103.55 112.85 103.4 112.65L99.65 107.95C99.5 107.75 99.25 107.75 99.05 107.9L98.65 108.25Z" fill="#171C8F"/>
<path d="M85.7 104.15L88.75 110.4C88.8 110.5 88.85 110.6 88.95 110.7L96.55 120.8C96.7 121 96.65 121.2 96.45 121.3L94.5 122.25C94.35 122.35 94.1 122.25 94 122.05L89.95 115.85C89.85 115.75 89.65 115.85 89.7 115.95L92.05 122.95C92.15 123.2 92.05 123.4 91.9 123.5L89.95 124.45C89.75 124.55 89.55 124.45 89.5 124.2L86.3 112C86.3 111.9 86.2 111.75 86.15 111.65L83.1 105.4C83 105.2 83.05 104.95 83.3 104.85L85.25 103.9C85.35 103.85 85.55 103.95 85.7 104.15Z" fill="#171C8F"/>
<path d="M69.5 56.05L67.3 58.1L73.6 64.55H50.8V67.55H73.6L67.3 74.05L69.5 76.1L79.2 66.05L69.5 56.05Z" fill="#171C8F"/>
</svg>
