<svg width="118" height="22" viewBox="0 0 118 22" fill="none" xmlns="http://www.w3.org/2000/svg">
<path d="M0 13.2C3.625 13.2 3.625 15.84 7.25 15.84C10.875 15.84 10.875 13.2 14.5 13.2C18.125 13.2 18.125 15.84 21.75 15.84C25.375 15.84 25.375 13.2 29 13.2" stroke="white" stroke-width="1.75"/>
<path d="M29 13.2C32.375 13.2 32.375 15.84 35.75 15.84C39.125 15.84 39.125 13.2 42.5 13.2C45.875 13.2 45.875 15.84 49.25 15.84C52.625 15.84 52.625 13.2 56 13.2" stroke="white" stroke-width="1.75"/>
<path d="M56 13.2C59.625 13.2 59.625 15.84 63.25 15.84C66.875 15.84 66.875 13.2 70.5 13.2C74.125 13.2 74.125 15.84 77.75 15.84C81.375 15.84 81.375 13.2 85 13.2" stroke="white" stroke-width="1.75"/>
<path d="M85 13.2C88.375 13.2 88.375 15.84 91.75 15.84C95.125 15.84 95.125 13.2 98.5 13.2C101.875 13.2 101.875 15.84 105.25 15.84C108.625 15.84 108.625 13.2 112 13.2" stroke="white" stroke-width="1.75"/>
</svg>
